<svg width="29" height="28" viewBox="0 0 29 28" fill="none" xmlns="http://www.w3.org/2000/svg">
<rect x="0.570312" width="28" height="28" rx="14" fill="#EFEFEF"/>
<path d="M10.1589 8.4107C9.83348 8.08527 9.30584 8.08527 8.98041 8.4107C8.65497 8.73614 8.65497 9.26378 8.98041 9.58921L13.3912 14L8.98043 18.4107C8.65499 18.7361 8.65499 19.2638 8.98043 19.5892C9.30587 19.9147 9.8335 19.9147 10.1589 19.5892L14.5697 15.1785L18.9804 19.5892C19.3058 19.9147 19.8335 19.9147 20.1589 19.5892C20.4844 19.2638 20.4844 18.7361 20.1589 18.4107L15.7482 14L20.1589 9.58922C20.4844 9.26378 20.4844 8.73614 20.1589 8.4107C19.8335 8.08527 19.3059 8.08527 18.9804 8.4107L14.5697 12.8215L10.1589 8.4107Z" fill="#33383F"/>
</svg>
