<svg width="33" height="32" viewBox="0 0 33 32" fill="none" xmlns="http://www.w3.org/2000/svg">
<circle opacity="0.5" cx="25.5" cy="20.5" r="6.5" fill="#8D9192"/>
<path d="M24.7268 9.52002H8.27344C7.72677 9.52002 7.27344 9.96002 7.27344 10.52C7.27344 11.0667 7.72677 11.52 8.27344 11.52H8.64677V26C8.64677 27.84 10.1401 29.3334 11.9801 29.3334H21.0201C22.8601 29.3334 24.3534 27.84 24.3534 26V11.52H24.7268C25.2734 11.52 25.7268 11.0667 25.7268 10.52C25.7268 9.96002 25.2734 9.52002 24.7268 9.52002ZM20.2734 22.8267C20.2734 23.3733 19.8201 23.8267 19.2734 23.8267C18.7134 23.8267 18.2734 23.3733 18.2734 22.8267V21.4533C18.2734 20.8933 18.7134 20.4533 19.2734 20.4533C19.8201 20.4533 20.2734 20.8933 20.2734 21.4533V22.8267ZM14.6601 11.72V22.9867C14.6601 23.5334 14.2201 23.9867 13.6601 23.9867C13.1134 23.9867 12.6601 23.5334 12.6601 22.9867V11.72C12.6601 11.6533 12.6734 11.5867 12.6868 11.52H14.6334C14.6468 11.5867 14.6601 11.6533 14.6601 11.72Z" fill="#1E1E1E"/>
<path d="M29.8327 6.39984V14.6265C29.8327 16.6932 28.1527 18.3598 26.086 18.3598H24.3527V16.3598H26.086C27.046 16.3598 27.8327 15.5865 27.8327 14.6265V6.39984C27.8327 5.43984 27.046 4.6665 26.086 4.6665H6.91268C5.95268 4.6665 5.16602 5.43984 5.16602 6.39984V14.6265C5.16602 15.5865 5.95268 16.3598 6.91268 16.3598H8.64602V18.3598H6.91268C4.84601 18.3598 3.16602 16.6932 3.16602 14.6265V6.39984C3.16602 4.34651 4.84601 2.6665 6.91268 2.6665H26.086C28.1527 2.6665 29.8327 4.34651 29.8327 6.39984Z" fill="#1E1E1E"/>
</svg>
