<svg width="33" height="32" viewBox="0 0 33 32" fill="none" xmlns="http://www.w3.org/2000/svg">
<circle opacity="0.5" cx="25.833" cy="19.5" r="6.5" fill="#8D9192"/>
<path d="M23.5671 2.6665H10.1137C7.98042 2.6665 6.24707 4.39983 6.24707 6.53316V25.4665C6.24707 27.5998 7.98042 29.3332 10.1137 29.3332H23.5671C25.7004 29.3332 27.4337 27.5998 27.4337 25.4665V6.53316C27.4337 4.39983 25.7004 2.6665 23.5671 2.6665ZM10.7804 13.0132C10.8471 12.8398 10.9537 12.6932 11.0737 12.5598C11.2071 12.4398 11.3537 12.3465 11.5271 12.2665C11.8471 12.1198 12.2337 12.1198 12.5671 12.2665C12.7271 12.3465 12.8737 12.4398 13.0204 12.5598C13.1404 12.6932 13.2337 12.8532 13.3004 13.0132C13.3671 13.1732 13.4204 13.3598 13.4204 13.5332C13.4204 13.9065 13.2737 14.2398 13.0204 14.5065C12.7537 14.7598 12.4204 14.9065 12.0471 14.9065C11.6737 14.9065 11.3271 14.7598 11.0737 14.5065C10.8071 14.2398 10.6737 13.9065 10.6737 13.5332C10.6737 13.3598 10.7137 13.1732 10.7804 13.0132ZM10.6737 8.59983C10.6737 8.4265 10.7137 8.23983 10.7804 8.07983C10.8471 7.9065 10.9537 7.75984 11.0737 7.62651C11.5804 7.11984 12.5137 7.11984 13.0204 7.62651C13.1404 7.75984 13.2337 7.91983 13.3004 8.07983C13.3804 8.23983 13.4204 8.4265 13.4204 8.59983C13.4204 8.95983 13.2737 9.29316 13.0204 9.57316C12.7537 9.83983 12.4204 9.97316 12.0471 9.97316C11.8604 9.97316 11.6871 9.93316 11.5271 9.8665C11.3537 9.7865 11.2071 9.69316 11.0737 9.57316C10.8071 9.30649 10.6737 8.97317 10.6737 8.59983ZM10.7804 17.9465C10.8471 17.7732 10.9537 17.6265 11.0737 17.4932C11.5937 16.9865 12.5137 16.9865 13.0204 17.4932C13.2604 17.7598 13.4204 18.1065 13.4204 18.4665C13.4204 18.8398 13.2737 19.1732 13.0204 19.4398C12.8737 19.5598 12.7271 19.6532 12.5671 19.7332C12.3937 19.7998 12.2204 19.8398 12.0471 19.8398C11.6737 19.8398 11.3271 19.6798 11.0737 19.4398C10.8071 19.1732 10.6737 18.8398 10.6737 18.4665C10.6737 18.2932 10.7137 18.1065 10.7804 17.9465ZM15.5804 13.0132C15.6471 12.8398 15.7404 12.6932 15.8737 12.5598C16.0071 12.4398 16.1537 12.3465 16.3137 12.2665C16.8204 12.0532 17.4337 12.1732 17.8071 12.5598C17.9404 12.6932 18.0337 12.8532 18.1004 13.0132C18.1671 13.1732 18.2071 13.3598 18.2071 13.5332C18.2071 13.9065 18.0737 14.2398 17.8071 14.5065C17.5537 14.7598 17.2071 14.9065 16.8337 14.9065C16.4737 14.9065 16.1271 14.7598 15.8737 14.5065C15.6071 14.2398 15.4737 13.9065 15.4737 13.5332C15.4737 13.3598 15.5137 13.1732 15.5804 13.0132ZM15.4737 8.59983C15.4737 8.4265 15.5137 8.23983 15.5804 8.07983C15.6471 7.91983 15.7404 7.75984 15.8737 7.62651C16.0071 7.50651 16.1404 7.41317 16.3137 7.33317C16.8204 7.11984 17.4337 7.23984 17.8071 7.62651C17.9404 7.75984 18.0337 7.9065 18.1004 8.07983C18.1671 8.23983 18.2071 8.4265 18.2071 8.59983C18.2071 8.97317 18.0737 9.30649 17.8071 9.57316C17.6737 9.69316 17.5271 9.7865 17.3671 9.8665C17.1937 9.93316 17.0204 9.97316 16.8337 9.97316C16.4737 9.97316 16.1271 9.83983 15.8737 9.57316C15.6071 9.30649 15.4737 8.95983 15.4737 8.59983ZM15.5804 17.9465C15.6471 17.7732 15.7404 17.6265 15.8737 17.4932C16.3804 16.9865 17.2871 16.9865 17.8071 17.4932C17.9404 17.6265 18.0337 17.7732 18.1004 17.9465C18.1671 18.1065 18.2071 18.2932 18.2071 18.4665C18.2071 18.8398 18.0737 19.1732 17.8071 19.4398C17.6737 19.5598 17.5271 19.6532 17.3671 19.7332C17.1937 19.7998 17.0204 19.8398 16.8337 19.8398C16.6604 19.8398 16.4871 19.7998 16.3137 19.7332C16.1537 19.6532 16.0071 19.5598 15.8737 19.4398C15.6071 19.1732 15.4737 18.8398 15.4737 18.4665C15.4737 18.2932 15.5137 18.1065 15.5804 17.9465ZM15.8737 22.4265C16.3804 21.9198 17.3004 21.9198 17.8071 22.4265C17.9404 22.5598 18.0337 22.7198 18.1004 22.8798C18.1671 23.0398 18.2071 23.2265 18.2071 23.3998C18.2071 23.7732 18.0737 24.1065 17.8071 24.3732C17.5537 24.6265 17.2071 24.7732 16.8337 24.7732C16.6604 24.7732 16.4871 24.7332 16.3137 24.6532C16.1537 24.5865 16.0071 24.4932 15.8737 24.3732C15.6071 24.1065 15.4737 23.7732 15.4737 23.3998C15.4737 23.0398 15.6204 22.6932 15.8737 22.4265ZM20.6604 17.4932C20.7937 17.3732 20.9537 17.2798 21.1137 17.1998C21.4471 17.0532 21.8337 17.0532 22.1537 17.1998C22.3404 17.2798 22.4737 17.3732 22.6071 17.4932C22.8604 17.7598 23.0071 18.1065 23.0071 18.4665C23.0071 18.6398 22.9671 18.8265 22.9004 18.9865C22.8337 19.1465 22.7271 19.3065 22.6071 19.4398C22.3537 19.6798 22.0071 19.8398 21.6337 19.8398C21.2604 19.8398 20.9271 19.6798 20.6604 19.4398C20.5404 19.3065 20.4471 19.1465 20.3804 18.9865C20.3137 18.8265 20.2604 18.6398 20.2604 18.4665C20.2604 18.1065 20.4204 17.7598 20.6604 17.4932ZM20.2604 13.5332C20.2604 13.3598 20.3137 13.1732 20.3804 13.0132C20.4471 12.8398 20.5404 12.6932 20.6604 12.5598C20.7937 12.4398 20.9537 12.3465 21.1137 12.2665C21.6204 12.0532 22.2204 12.1732 22.6071 12.5598C22.7271 12.6932 22.8337 12.8398 22.9004 13.0132C22.9671 13.1732 23.0071 13.3598 23.0071 13.5332C23.0071 13.9065 22.8737 14.2398 22.6071 14.5065C22.3537 14.7598 22.0071 14.9065 21.6337 14.9065C21.2604 14.9065 20.9271 14.7598 20.6604 14.5065C20.4071 14.2398 20.2604 13.9065 20.2604 13.5332ZM22.6071 9.57316C22.4737 9.69316 22.3271 9.7865 22.1537 9.8665C21.9937 9.93316 21.8204 9.97316 21.6337 9.97316C21.2604 9.97316 20.9271 9.83983 20.6604 9.57316C20.4071 9.30649 20.2604 8.97317 20.2604 8.59983C20.2604 8.4265 20.3137 8.23983 20.3804 8.07983C20.4471 7.91983 20.5404 7.75984 20.6604 7.62651C20.7937 7.50651 20.9404 7.41317 21.1137 7.33317C21.6204 7.11984 22.2204 7.23984 22.6071 7.62651C22.7271 7.75984 22.8337 7.9065 22.9004 8.07983C22.9671 8.23983 23.0071 8.4265 23.0071 8.59983C23.0071 8.97317 22.8737 9.30649 22.6071 9.57316Z" fill="#1E1E1E"/>
</svg>
