<svg width="33" height="32" viewBox="0 0 33 32" fill="none" xmlns="http://www.w3.org/2000/svg">
<circle opacity="0.5" cx="25.167" cy="20" r="6.5" fill="#8D9192"/>
<path d="M28.7933 3.38671C28.1 2.70671 27.1 2.48004 26.1933 2.82671L4.44663 10.7467C3.5133 11.0934 2.88663 11.92 2.81996 12.9067C2.73996 13.8934 3.23333 14.8 4.09999 15.28L10.7133 18.8934C11.1133 19.1067 11.5933 19.04 11.9133 18.72L13.0067 17.6534L19.7 11.0934C20.1 10.72 20.7266 10.72 21.1133 11.12C21.5 11.5067 21.5 12.1467 21.1 12.5334L14.3266 19.16L13.42 20.0534C13.0866 20.3734 13.02 20.88 13.2466 21.28L17.1666 28.1334C17.6333 28.8934 18.42 29.3334 19.2866 29.3334C19.38 29.3334 19.46 29.3334 19.5533 29.32C20.5133 29.2267 21.3133 28.5867 21.6466 27.68L29.3933 6.00004C29.7133 5.08004 29.4866 4.08004 28.7933 3.38671Z" fill="#1E1E1E"/>
</svg>
