<svg width="33" height="32" viewBox="0 0 33 32" fill="none" xmlns="http://www.w3.org/2000/svg">
<path d="M26.088 2.6665H23.3547H16.5013H6.91463C4.84797 2.6665 3.16797 4.34651 3.16797 6.41317V26.1465C3.16797 27.0665 3.51464 27.9732 4.12797 28.6932C4.32797 28.9198 4.60797 29.0265 4.91463 29.0265C5.2213 29.0265 5.50132 28.8798 5.68799 28.6398L7.39465 26.3732L9.06132 28.5465C9.43465 29.0398 10.008 29.3332 10.6346 29.3332C11.2613 29.3332 11.8346 29.0398 12.2213 28.5465L13.8613 26.3732L15.528 28.5465C16.288 29.5465 17.9146 29.5465 18.6746 28.5465L20.3013 26.4132L21.848 28.5732C22.0213 28.8265 22.3146 28.9732 22.6213 28.9865C22.9146 29.0132 23.2213 28.8798 23.4213 28.6532C24.0213 27.9465 24.3547 27.0665 24.3547 26.1465V16.9998H26.088C28.1546 16.9998 29.8346 15.3198 29.8346 13.2532V6.39984C29.8346 4.33317 28.1546 2.6665 26.088 2.6665ZM7.27462 20.1065C7.27462 19.5598 7.72795 19.1065 8.27462 19.1065H19.248C19.7946 19.1065 20.248 19.5598 20.248 20.1065C20.248 20.6532 19.7946 21.1065 19.248 21.1065H8.27462C7.72795 21.1065 7.27462 20.6532 7.27462 20.1065ZM7.27462 14.6265C7.27462 14.0665 7.72795 13.6265 8.27462 13.6265H19.248C19.7946 13.6265 20.248 14.0665 20.248 14.6265C20.248 15.1732 19.7946 15.6265 19.248 15.6265H8.27462C7.72795 15.6265 7.27462 15.1732 7.27462 14.6265ZM19.248 10.1998H8.27462C7.72795 10.1998 7.27462 9.75984 7.27462 9.19984C7.27462 8.65317 7.72795 8.19984 8.27462 8.19984H19.248C19.7946 8.19984 20.248 8.65317 20.248 9.19984C20.248 9.75984 19.7946 10.1998 19.248 10.1998ZM27.8346 13.2532C27.8346 14.2132 27.048 14.9998 26.088 14.9998H24.3547V6.39984V4.6665H26.088C27.048 4.6665 27.8346 5.43984 27.8346 6.39984V13.2532Z" fill="#1E1E1E"/>
<circle opacity="0.5" cx="25.5" cy="20" r="6.5" fill="#8D9192"/>
</svg>
